<svg aria-roledescription="er" role="graphics-document document" viewBox="0 0 143.74978637695312 419" style="max-width: 143.75px; background-color: white;" xmlns:xlink="http://www.w3.org/1999/xlink" xmlns="http://www.w3.org/2000/svg" width="100%" id="mermaid-1685353150162"><style>#mermaid-1685353150162{font-family:"trebuchet ms",verdana,arial,sans-serif;font-size:16px;fill:#333;}#mermaid-1685353150162 .error-icon{fill:#552222;}#mermaid-1685353150162 .error-text{fill:#552222;stroke:#552222;}#mermaid-1685353150162 .edge-thickness-normal{stroke-width:2px;}#mermaid-1685353150162 .edge-thickness-thick{stroke-width:3.5px;}#mermaid-1685353150162 .edge-pattern-solid{stroke-dasharray:0;}#mermaid-1685353150162 .edge-pattern-dashed{stroke-dasharray:3;}#mermaid-1685353150162 .edge-pattern-dotted{stroke-dasharray:2;}#mermaid-1685353150162 .marker{fill:#333333;stroke:#333333;}#mermaid-1685353150162 .marker.cross{stroke:#333333;}#mermaid-1685353150162 svg{font-family:"trebuchet ms",verdana,arial,sans-serif;font-size:16px;}#mermaid-1685353150162 .entityBox{fill:#ECECFF;stroke:#9370DB;}#mermaid-1685353150162 .attributeBoxOdd{fill:#ffffff;stroke:#9370DB;}#mermaid-1685353150162 .attributeBoxEven{fill:#f2f2f2;stroke:#9370DB;}#mermaid-1685353150162 .relationshipLabelBox{fill:hsl(80, 100%, 96.2745098039%);opacity:0.7;background-color:hsl(80, 100%, 96.2745098039%);}#mermaid-1685353150162 .relationshipLabelBox rect{opacity:0.5;}#mermaid-1685353150162 .relationshipLine{stroke:#333333;}#mermaid-1685353150162 .entityTitleText{text-anchor:middle;font-size:18px;fill:#333;}#mermaid-1685353150162 :root{--mermaid-font-family:"trebuchet ms",verdana,arial,sans-serif;}</style><g/><defs><marker orient="auto" markerHeight="18" markerWidth="18" refY="9" refX="0" id="ONLY_ONE_START"><path d="M9,0 L9,18 M15,0 L15,18" fill="none" stroke="gray"/></marker></defs><defs><marker orient="auto" markerHeight="18" markerWidth="18" refY="9" refX="18" id="ONLY_ONE_END"><path d="M3,0 L3,18 M9,0 L9,18" fill="none" stroke="gray"/></marker></defs><defs><marker orient="auto" markerHeight="18" markerWidth="30" refY="9" refX="0" id="ZERO_OR_ONE_START"><circle r="6" cy="9" cx="21" fill="white" stroke="gray"/><path d="M9,0 L9,18" fill="none" stroke="gray"/></marker></defs><defs><marker orient="auto" markerHeight="18" markerWidth="30" refY="9" refX="30" id="ZERO_OR_ONE_END"><circle r="6" cy="9" cx="9" fill="white" stroke="gray"/><path d="M21,0 L21,18" fill="none" stroke="gray"/></marker></defs><defs><marker orient="auto" markerHeight="36" markerWidth="45" refY="18" refX="18" id="ONE_OR_MORE_START"><path d="M0,18 Q 18,0 36,18 Q 18,36 0,18 M42,9 L42,27" fill="none" stroke="gray"/></marker></defs><defs><marker orient="auto" markerHeight="36" markerWidth="45" refY="18" refX="27" id="ONE_OR_MORE_END"><path d="M3,9 L3,27 M9,18 Q27,0 45,18 Q27,36 9,18" fill="none" stroke="gray"/></marker></defs><defs><marker orient="auto" markerHeight="36" markerWidth="57" refY="18" refX="18" id="ZERO_OR_MORE_START"><circle r="6" cy="18" cx="48" fill="white" stroke="gray"/><path d="M0,18 Q18,0 36,18 Q18,36 0,18" fill="none" stroke="gray"/></marker></defs><defs><marker orient="auto" markerHeight="36" markerWidth="57" refY="18" refX="39" id="ZERO_OR_MORE_END"><circle r="6" cy="18" cx="9" fill="white" stroke="gray"/><path d="M21,18 Q39,0 57,18 Q39,36 21,18" fill="none" stroke="gray"/></marker></defs><path style="stroke: gray; fill: none;" marker-start="url(#ONE_OR_MORE_START)" marker-end="url(#ONE_OR_MORE_END)" d="M71.87489318847656,149L71.87489318847656,157.33333333333334C71.87489318847656,165.66666666666666,71.87489318847656,182.33333333333334,71.87489318847656,199C71.87489318847656,215.66666666666666,71.87489318847656,232.33333333333334,71.87489318847656,240.66666666666666L71.87489318847656,249" class="er relationshipLine"/><g transform="translate(21.874893188476562,20 )" id="entity-Command-a13bae21-cd63-560c-aba0-44eb7447ff1e"><rect height="129" width="100" y="0" x="0" class="er entityBox"/><text style="dominant-baseline: middle; text-anchor: middle; font-size: 12px;" transform="translate(50,12)" y="0" x="0" id="text-entity-Command-a13bae21-cd63-560c-aba0-44eb7447ff1e" class="er entityLabel">Command</text><rect height="21" width="45.66709899902344" y="24" x="0" class="er attributeBoxOdd"/><text style="dominant-baseline: middle; font-size: 10.2px;" transform="translate(5,34.5)" y="0" x="0" id="text-entity-Command-a13bae21-cd63-560c-aba0-44eb7447ff1e-attr-1-type" class="er entityLabel">string</text><rect height="21" width="54.33290100097656" y="24" x="45.66709899902344" class="er attributeBoxOdd"/><text style="dominant-baseline: middle; font-size: 10.2px;" transform="translate(50.66709899902344,34.5)" y="0" x="0" id="text-entity-Command-a13bae21-cd63-560c-aba0-44eb7447ff1e-attr-1-name" class="er entityLabel">id</text><rect height="21" width="45.66709899902344" y="45" x="0" class="er attributeBoxEven"/><text style="dominant-baseline: middle; font-size: 10.2px;" transform="translate(5,55.5)" y="0" x="0" id="text-entity-Command-a13bae21-cd63-560c-aba0-44eb7447ff1e-attr-2-type" class="er entityLabel">string</text><rect height="21" width="54.33290100097656" y="45" x="45.66709899902344" class="er attributeBoxEven"/><text style="dominant-baseline: middle; font-size: 10.2px;" transform="translate(50.66709899902344,55.5)" y="0" x="0" id="text-entity-Command-a13bae21-cd63-560c-aba0-44eb7447ff1e-attr-2-name" class="er entityLabel">userId</text><rect height="21" width="45.66709899902344" y="66" x="0" class="er attributeBoxOdd"/><text style="dominant-baseline: middle; font-size: 10.2px;" transform="translate(5,76.5)" y="0" x="0" id="text-entity-Command-a13bae21-cd63-560c-aba0-44eb7447ff1e-attr-3-type" class="er entityLabel">string</text><rect height="21" width="54.33290100097656" y="66" x="45.66709899902344" class="er attributeBoxOdd"/><text style="dominant-baseline: middle; font-size: 10.2px;" transform="translate(50.66709899902344,76.5)" y="0" x="0" id="text-entity-Command-a13bae21-cd63-560c-aba0-44eb7447ff1e-attr-3-name" class="er entityLabel">roomId</text><rect height="21" width="45.66709899902344" y="87" x="0" class="er attributeBoxEven"/><text style="dominant-baseline: middle; font-size: 10.2px;" transform="translate(5,97.5)" y="0" x="0" id="text-entity-Command-a13bae21-cd63-560c-aba0-44eb7447ff1e-attr-4-type" class="er entityLabel">string</text><rect height="21" width="54.33290100097656" y="87" x="45.66709899902344" class="er attributeBoxEven"/><text style="dominant-baseline: middle; font-size: 10.2px;" transform="translate(50.66709899902344,97.5)" y="0" x="0" id="text-entity-Command-a13bae21-cd63-560c-aba0-44eb7447ff1e-attr-4-name" class="er entityLabel">name</text><rect height="21" width="45.66709899902344" y="108" x="0" class="er attributeBoxOdd"/><text style="dominant-baseline: middle; font-size: 10.2px;" transform="translate(5,118.5)" y="0" x="0" id="text-entity-Command-a13bae21-cd63-560c-aba0-44eb7447ff1e-attr-5-type" class="er entityLabel">object</text><rect height="21" width="54.33290100097656" y="108" x="45.66709899902344" class="er attributeBoxOdd"/><text style="dominant-baseline: middle; font-size: 10.2px;" transform="translate(50.66709899902344,118.5)" y="0" x="0" id="text-entity-Command-a13bae21-cd63-560c-aba0-44eb7447ff1e-attr-5-name" class="er entityLabel">payload</text></g><g transform="translate(20,249 )" id="entity-Event-5fcfcec5-0af7-59ba-bebb-bb0a822c8afa"><rect height="150" width="103.74978637695312" y="0" x="0" class="er entityBox"/><text style="dominant-baseline: middle; text-anchor: middle; font-size: 12px;" transform="translate(51.87489318847656,12)" y="0" x="0" id="text-entity-Event-5fcfcec5-0af7-59ba-bebb-bb0a822c8afa" class="er entityLabel">Event</text><rect height="21" width="37.3544921875" y="24" x="0" class="er attributeBoxOdd"/><text style="dominant-baseline: middle; font-size: 10.2px;" transform="translate(5,34.5)" y="0" x="0" id="text-entity-Event-5fcfcec5-0af7-59ba-bebb-bb0a822c8afa-attr-1-type" class="er entityLabel">string</text><rect height="21" width="66.39529418945312" y="24" x="37.3544921875" class="er attributeBoxOdd"/><text style="dominant-baseline: middle; font-size: 10.2px;" transform="translate(42.3544921875,34.5)" y="0" x="0" id="text-entity-Event-5fcfcec5-0af7-59ba-bebb-bb0a822c8afa-attr-1-name" class="er entityLabel">id</text><rect height="21" width="37.3544921875" y="45" x="0" class="er attributeBoxEven"/><text style="dominant-baseline: middle; font-size: 10.2px;" transform="translate(5,55.5)" y="0" x="0" id="text-entity-Event-5fcfcec5-0af7-59ba-bebb-bb0a822c8afa-attr-2-type" class="er entityLabel">string</text><rect height="21" width="66.39529418945312" y="45" x="37.3544921875" class="er attributeBoxEven"/><text style="dominant-baseline: middle; font-size: 10.2px;" transform="translate(42.3544921875,55.5)" y="0" x="0" id="text-entity-Event-5fcfcec5-0af7-59ba-bebb-bb0a822c8afa-attr-2-name" class="er entityLabel">userId</text><rect height="21" width="37.3544921875" y="66" x="0" class="er attributeBoxOdd"/><text style="dominant-baseline: middle; font-size: 10.2px;" transform="translate(5,76.5)" y="0" x="0" id="text-entity-Event-5fcfcec5-0af7-59ba-bebb-bb0a822c8afa-attr-3-type" class="er entityLabel">string</text><rect height="21" width="66.39529418945312" y="66" x="37.3544921875" class="er attributeBoxOdd"/><text style="dominant-baseline: middle; font-size: 10.2px;" transform="translate(42.3544921875,76.5)" y="0" x="0" id="text-entity-Event-5fcfcec5-0af7-59ba-bebb-bb0a822c8afa-attr-3-name" class="er entityLabel">correlationId</text><rect height="21" width="37.3544921875" y="87" x="0" class="er attributeBoxEven"/><text style="dominant-baseline: middle; font-size: 10.2px;" transform="translate(5,97.5)" y="0" x="0" id="text-entity-Event-5fcfcec5-0af7-59ba-bebb-bb0a822c8afa-attr-4-type" class="er entityLabel">string</text><rect height="21" width="66.39529418945312" y="87" x="37.3544921875" class="er attributeBoxEven"/><text style="dominant-baseline: middle; font-size: 10.2px;" transform="translate(42.3544921875,97.5)" y="0" x="0" id="text-entity-Event-5fcfcec5-0af7-59ba-bebb-bb0a822c8afa-attr-4-name" class="er entityLabel">roomId</text><rect height="21" width="37.3544921875" y="108" x="0" class="er attributeBoxOdd"/><text style="dominant-baseline: middle; font-size: 10.2px;" transform="translate(5,118.5)" y="0" x="0" id="text-entity-Event-5fcfcec5-0af7-59ba-bebb-bb0a822c8afa-attr-5-type" class="er entityLabel">string</text><rect height="21" width="66.39529418945312" y="108" x="37.3544921875" class="er attributeBoxOdd"/><text style="dominant-baseline: middle; font-size: 10.2px;" transform="translate(42.3544921875,118.5)" y="0" x="0" id="text-entity-Event-5fcfcec5-0af7-59ba-bebb-bb0a822c8afa-attr-5-name" class="er entityLabel">name</text><rect height="21" width="37.3544921875" y="129" x="0" class="er attributeBoxEven"/><text style="dominant-baseline: middle; font-size: 10.2px;" transform="translate(5,139.5)" y="0" x="0" id="text-entity-Event-5fcfcec5-0af7-59ba-bebb-bb0a822c8afa-attr-6-type" class="er entityLabel">object</text><rect height="21" width="66.39529418945312" y="129" x="37.3544921875" class="er attributeBoxEven"/><text style="dominant-baseline: middle; font-size: 10.2px;" transform="translate(42.3544921875,139.5)" y="0" x="0" id="text-entity-Event-5fcfcec5-0af7-59ba-bebb-bb0a822c8afa-attr-6-name" class="er entityLabel">payload</text></g><rect height="14" width="49.375" y="192" x="47.18739318847656" class="er relationshipLabelBox"/><text style="text-anchor: middle; dominant-baseline: middle; font-size: 12px;" y="199" x="71.87489318847656" id="rel1" class="er relationshipLabel">produces</text></svg>